<svg width="17" height="17" viewBox="0 0 17 17" fill="none" xmlns="http://www.w3.org/2000/svg">
<path d="M2.22559 7.35894C1.39716 7.35894 0.725586 8.03052 0.725586 8.85894C0.725586 9.68737 1.39716 10.3589 2.22559 10.3589V7.35894ZM8.85865 10.3589C9.68708 10.3589 10.3586 9.68737 10.3586 8.85894C10.3586 8.03052 9.68708 7.35894 8.85865 7.35894V10.3589ZM8.85872 7.35894C8.0303 7.35894 7.35872 8.03052 7.35872 8.85894C7.35872 9.68737 8.0303 10.3589 8.85872 10.3589V7.35894ZM15.4918 10.3589C16.3202 10.3589 16.9918 9.68737 16.9918 8.85894C16.9918 8.03052 16.3202 7.35894 15.4918 7.35894V10.3589ZM10.3589 8.85872C10.3589 8.0303 9.68737 7.35872 8.85894 7.35872C8.03052 7.35872 7.35894 8.0303 7.35894 8.85872H10.3589ZM7.35894 15.4918C7.35894 16.3202 8.03052 16.9918 8.85894 16.9918C9.68737 16.9918 10.3589 16.3202 10.3589 15.4918H7.35894ZM7.35894 8.85865C7.35894 9.68708 8.03052 10.3586 8.85894 10.3586C9.68737 10.3586 10.3589 9.68708 10.3589 8.85865H7.35894ZM10.3589 2.22559C10.3589 1.39716 9.68737 0.725586 8.85894 0.725586C8.03052 0.725586 7.35894 1.39716 7.35894 2.22559H10.3589ZM2.22559 10.3589H8.85865V7.35894H2.22559V10.3589ZM8.85872 10.3589H15.4918V7.35894H8.85872V10.3589ZM8.85894 8.85872H7.35894C7.35894 8.85872 7.35894 8.85872 7.35894 8.85872C7.35894 8.85872 7.35894 8.85873 7.35894 8.85873C7.35894 8.85873 7.35894 8.85873 7.35894 8.85873C7.35894 8.85873 7.35894 8.85873 7.35894 8.85873C7.35894 8.85873 7.35894 8.85873 7.35894 8.85873C7.35894 8.85874 7.35894 8.85874 7.35894 8.85874C7.35894 8.85874 7.35894 8.85875 7.35894 8.85875C7.35894 8.85875 7.35894 8.85876 7.35894 8.85876C7.35894 8.85876 7.35894 8.85877 7.35894 8.85877C7.35894 8.85878 7.35894 8.85878 7.35894 8.85879C7.35894 8.8588 7.35894 8.8588 7.35894 8.85881C7.35894 8.85882 7.35894 8.85882 7.35894 8.85883C7.35894 8.85884 7.35894 8.85885 7.35894 8.85886C7.35894 8.85887 7.35894 8.85888 7.35894 8.85889C7.35894 8.8589 7.35894 8.85891 7.35894 8.85893C7.35894 8.85894 7.35894 8.85895 7.35894 8.85897C7.35894 8.85898 7.35894 8.859 7.35894 8.85901C7.35894 8.85903 7.35894 8.85905 7.35894 8.85906C7.35894 8.85908 7.35894 8.8591 7.35894 8.85912C7.35894 8.85914 7.35894 8.85916 7.35894 8.85918C7.35894 8.8592 7.35894 8.85923 7.35894 8.85925C7.35894 8.85927 7.35894 8.8593 7.35894 8.85933C7.35894 8.85935 7.35894 8.85938 7.35894 8.85941C7.35894 8.85944 7.35894 8.85947 7.35894 8.8595C7.35894 8.85953 7.35894 8.85956 7.35894 8.85959C7.35894 8.85963 7.35894 8.85966 7.35894 8.8597C7.35894 8.85973 7.35894 8.85977 7.35894 8.85981C7.35894 8.85985 7.35894 8.85989 7.35894 8.85993C7.35894 8.85997 7.35894 8.86001 7.35894 8.86006C7.35894 8.8601 7.35894 8.86015 7.35894 8.8602C7.35894 8.86024 7.35894 8.86029 7.35894 8.86034C7.35894 8.86039 7.35894 8.86045 7.35894 8.8605C7.35894 8.86055 7.35894 8.86061 7.35894 8.86067C7.35894 8.86072 7.35894 8.86078 7.35894 8.86084C7.35894 8.8609 7.35894 8.86097 7.35894 8.86103C7.35894 8.86109 7.35894 8.86116 7.35894 8.86123C7.35894 8.8613 7.35894 8.86136 7.35894 8.86144C7.35894 8.86151 7.35894 8.86158 7.35894 8.86166C7.35894 8.86173 7.35894 8.86181 7.35894 8.86189C7.35894 8.86197 7.35894 8.86205 7.35894 8.86213C7.35894 8.86221 7.35894 8.8623 7.35894 8.86239C7.35894 8.86247 7.35894 8.86256 7.35894 8.86265C7.35894 8.86274 7.35894 8.86284 7.35894 8.86293C7.35894 8.86303 7.35894 8.86313 7.35894 8.86323C7.35894 8.86333 7.35894 8.86343 7.35894 8.86353C7.35894 8.86364 7.35894 8.86375 7.35894 8.86385C7.35894 8.86396 7.35894 8.86408 7.35894 8.86419C7.35894 8.8643 7.35894 8.86442 7.35894 8.86454C7.35894 8.86466 7.35894 8.86478 7.35894 8.8649C7.35894 8.86503 7.35894 8.86515 7.35894 8.86528C7.35894 8.86541 7.35894 8.86554 7.35894 8.86567C7.35894 8.86581 7.35894 8.86594 7.35894 8.86608C7.35894 8.86622 7.35894 8.86636 7.35894 8.86651C7.35894 8.86665 7.35894 8.8668 7.35894 8.86695C7.35894 8.8671 7.35894 8.86725 7.35894 8.8674C7.35894 8.86756 7.35894 8.86772 7.35894 8.86788C7.35894 8.86804 7.35894 8.8682 7.35894 8.86837C7.35894 8.86853 7.35894 8.8687 7.35894 8.86887C7.35894 8.86905 7.35894 8.86922 7.35894 8.8694C7.35894 8.86958 7.35894 8.86976 7.35894 8.86994C7.35894 8.87013 7.35894 8.87031 7.35894 8.8705C7.35894 8.87069 7.35894 8.87089 7.35894 8.87108C7.35894 8.87128 7.35894 8.87148 7.35894 8.87168C7.35894 8.87188 7.35894 8.87209 7.35894 8.8723C7.35894 8.8725 7.35894 8.87272 7.35894 8.87293C7.35894 8.87315 7.35894 8.87337 7.35894 8.87359C7.35894 8.87381 7.35894 8.87403 7.35894 8.87426C7.35894 8.87449 7.35894 8.87472 7.35894 8.87496C7.35894 8.87519 7.35894 8.87543 7.35894 8.87568C7.35894 8.87592 7.35894 8.87616 7.35894 8.87641C7.35894 8.87666 7.35894 8.87691 7.35894 8.87717C7.35894 8.87743 7.35894 8.87769 7.35894 8.87795C7.35894 8.87821 7.35894 8.87848 7.35894 8.87875C7.35894 8.87902 7.35894 8.8793 7.35894 8.87957C7.35894 8.87985 7.35894 8.88013 7.35894 8.88042C7.35894 8.8807 7.35894 8.88099 7.35894 8.88129C7.35894 8.88158 7.35894 8.88188 7.35894 8.88218C7.35894 8.88248 7.35894 8.88278 7.35894 8.88309C7.35894 8.8834 7.35894 8.88371 7.35894 8.88403C7.35894 8.88434 7.35894 8.88466 7.35894 8.88499C7.35894 8.88531 7.35894 8.88564 7.35894 8.88597C7.35894 8.88631 7.35894 8.88664 7.35894 8.88698C7.35894 8.88732 7.35894 8.88767 7.35894 8.88802C7.35894 8.88836 7.35894 8.88872 7.35894 8.88907C7.35894 8.88943 7.35894 8.88979 7.35894 8.89016C7.35894 8.89052 7.35894 8.89089 7.35894 8.89127C7.35894 8.89164 7.35894 8.89202 7.35894 8.8924C7.35894 8.89279 7.35894 8.89317 7.35894 8.89356C7.35894 8.89396 7.35894 8.89435 7.35894 8.89475C7.35894 8.89515 7.35894 8.89556 7.35894 8.89597C7.35894 8.89638 7.35894 8.89679 7.35894 8.89721C7.35894 8.89763 7.35894 8.89805 7.35894 8.89848C7.35894 8.8989 7.35894 8.89933 7.35894 8.89977C7.35894 8.90021 7.35894 8.90065 7.35894 8.9011C7.35894 8.90154 7.35894 8.90199 7.35894 8.90245C7.35894 8.9029 7.35894 8.90336 7.35894 8.90383C7.35894 8.90429 7.35894 8.90476 7.35894 8.90524C7.35894 8.90571 7.35894 8.90619 7.35894 8.90668C7.35894 8.90716 7.35894 8.90765 7.35894 8.90814C7.35894 8.90864 7.35894 8.90914 7.35894 8.90964C7.35894 8.91015 7.35894 8.91066 7.35894 8.91117C7.35894 8.91168 7.35894 8.9122 7.35894 8.91273C7.35894 8.91325 7.35894 8.91378 7.35894 8.91432C7.35894 8.91485 7.35894 8.91539 7.35894 8.91593C7.35894 8.91648 7.35894 8.91703 7.35894 8.91758C7.35894 8.91814 7.35894 8.9187 7.35894 8.91927C7.35894 8.91983 7.35894 8.9204 7.35894 8.92098C7.35894 8.92156 7.35894 8.92214 7.35894 8.92272C7.35894 8.92331 7.35894 8.9239 7.35894 8.9245C7.35894 8.9251 7.35894 8.9257 7.35894 8.92631C7.35894 8.92692 7.35894 8.92754 7.35894 8.92816C7.35894 8.92878 7.35894 8.9294 7.35894 8.93003C7.35894 8.93066 7.35894 8.9313 7.35894 8.93194C7.35894 8.93258 7.35894 8.93323 7.35894 8.93389C7.35894 8.93454 7.35894 8.9352 7.35894 8.93586C7.35894 8.93653 7.35894 8.9372 7.35894 8.93788C7.35894 8.93855 7.35894 8.93923 7.35894 8.93992C7.35894 8.94061 7.35894 8.94131 7.35894 8.94201C7.35894 8.9427 7.35894 8.94341 7.35894 8.94412C7.35894 8.94483 7.35894 8.94555 7.35894 8.94627C7.35894 8.947 7.35894 8.94773 7.35894 8.94846C7.35894 8.9492 7.35894 8.94994 7.35894 8.95069C7.35894 8.95144 7.35894 8.95219 7.35894 8.95295C7.35894 8.95371 7.35894 8.95448 7.35894 8.95525C7.35894 8.95602 7.35894 8.9568 7.35894 8.95758C7.35894 8.95837 7.35894 8.95916 7.35894 8.95996C7.35894 8.96075 7.35894 8.96156 7.35894 8.96237C7.35894 8.96318 7.35894 8.96399 7.35894 8.96481C7.35894 8.96564 7.35894 8.96646 7.35894 8.9673C7.35894 8.96814 7.35894 8.96898 7.35894 8.96983C7.35894 8.97067 7.35894 8.97153 7.35894 8.97239C7.35894 8.97325 7.35894 8.97412 7.35894 8.97499C7.35894 8.97587 7.35894 8.97675 7.35894 8.97763C7.35894 8.97852 7.35894 8.97942 7.35894 8.98032C7.35894 8.98122 7.35894 8.98212 7.35894 8.98304C7.35894 8.98395 7.35894 8.98487 7.35894 8.9858C7.35894 8.98673 7.35894 8.98766 7.35894 8.9886C7.35894 8.98954 7.35894 8.99049 7.35894 8.99145C7.35894 8.9924 7.35894 8.99336 7.35894 8.99433C7.35894 8.9953 7.35894 8.99628 7.35894 8.99726C7.35894 8.99824 7.35894 8.99923 7.35894 9.00023C7.35894 9.00122 7.35894 9.00223 7.35894 9.00324C7.35894 9.00425 7.35894 9.00527 7.35894 9.00629C7.35894 9.00732 7.35894 9.00835 7.35894 9.00939C7.35894 9.01043 7.35894 9.01147 7.35894 9.01253C7.35894 9.01358 7.35894 9.01464 7.35894 9.01571C7.35894 9.01678 7.35894 9.01785 7.35894 9.01893C7.35894 9.02002 7.35894 9.02111 7.35894 9.0222C7.35894 9.0233 7.35894 9.02441 7.35894 9.02552C7.35894 9.02663 7.35894 9.02775 7.35894 9.02888C7.35894 9.03 7.35894 9.03114 7.35894 9.03228C7.35894 9.03342 7.35894 9.03457 7.35894 9.03573C7.35894 9.03688 7.35894 9.03805 7.35894 9.03922C7.35894 9.04039 7.35894 9.04157 7.35894 9.04276C7.35894 9.04395 7.35894 9.04514 7.35894 9.04634C7.35894 9.04755 7.35894 9.04876 7.35894 9.04997C7.35894 9.05119 7.35894 9.05242 7.35894 9.05365C7.35894 9.05489 7.35894 9.05613 7.35894 9.05738C7.35894 9.05863 7.35894 9.05988 7.35894 9.06115C7.35894 9.06241 7.35894 9.06369 7.35894 9.06497C7.35894 9.06625 7.35894 9.06754 7.35894 9.06884C7.35894 9.07013 7.35894 9.07144 7.35894 9.07275C7.35894 9.07406 7.35894 9.07538 7.35894 9.07671C7.35894 9.07804 7.35894 9.07938 7.35894 9.08073C7.35894 9.08207 7.35894 9.08342 7.35894 9.08479C7.35894 9.08615 7.35894 9.08752 7.35894 9.0889C7.35894 9.09027 7.35894 9.09166 7.35894 9.09306C7.35894 9.09445 7.35894 9.09585 7.35894 9.09727C7.35894 9.09868 7.35894 9.1001 7.35894 9.10153C7.35894 9.10295 7.35894 9.10439 7.35894 9.10584C7.35894 9.10728 7.35894 9.10873 7.35894 9.1102C7.35894 9.11166 7.35894 9.11313 7.35894 9.11461C7.35894 9.11609 7.35894 9.11757 7.35894 9.11907C7.35894 9.12057 7.35894 9.12207 7.35894 9.12359C7.35894 9.1251 7.35894 9.12662 7.35894 9.12815C7.35894 9.12968 7.35894 9.13122 7.35894 9.13277C7.35894 9.13432 7.35894 9.13588 7.35894 9.13744C7.35894 9.13901 7.35894 9.14058 7.35894 9.14217C7.35894 9.14375 7.35894 9.14534 7.35894 9.14694C7.35894 9.14854 7.35894 9.15015 7.35894 9.15177C7.35894 9.15339 7.35894 9.15502 7.35894 9.15666C7.35894 9.15829 7.35894 9.15994 7.35894 9.16159C7.35894 9.16325 7.35894 9.16491 7.35894 9.16659C7.35894 9.16826 7.35894 9.16994 7.35894 9.17163C7.35894 9.17333 7.35894 9.17503 7.35894 9.17674C7.35894 9.17845 7.35894 9.18016 7.35894 9.18189C7.35894 9.18362 7.35894 9.18536 7.35894 9.18711C7.35894 9.18885 7.35894 9.19061 7.35894 9.19237C7.35894 9.19414 7.35894 9.19591 7.35894 9.1977C7.35894 9.19948 7.35894 9.20127 7.35894 9.20308C7.35894 9.20488 7.35894 9.20669 7.35894 9.20851C7.35894 9.21034 7.35894 9.21217 7.35894 9.21401C7.35894 9.21585 7.35894 9.2177 7.35894 9.21956C7.35894 9.22142 7.35894 9.22329 7.35894 9.22517C7.35894 9.22705 7.35894 9.22894 7.35894 9.23083C7.35894 9.23273 7.35894 9.23464 7.35894 9.23656C7.35894 9.23848 7.35894 9.24041 7.35894 9.24234C7.35894 9.24428 7.35894 9.24623 7.35894 9.24818C7.35894 9.25014 7.35894 9.25211 7.35894 9.25409C7.35894 9.25606 7.35894 9.25805 7.35894 9.26005C7.35894 9.26204 7.35894 9.26405 7.35894 9.26607C7.35894 9.26808 7.35894 9.27011 7.35894 9.27214C7.35894 9.27418 7.35894 9.27623 7.35894 9.27829C7.35894 9.28034 7.35894 9.28241 7.35894 9.28448C7.35894 9.28656 7.35894 9.28865 7.35894 9.29075C7.35894 9.29284 7.35894 9.29495 7.35894 9.29707C7.35894 9.29919 7.35894 9.30131 7.35894 9.30345C7.35894 9.30559 7.35894 9.30774 7.35894 9.3099C7.35894 9.31206 7.35894 9.31422 7.35894 9.3164C7.35894 9.31858 7.35894 9.32077 7.35894 9.32297C7.35894 9.32517 7.35894 9.32738 7.35894 9.32961C7.35894 9.33183 7.35894 9.33406 7.35894 9.3363C7.35894 9.33854 7.35894 9.3408 7.35894 9.34306C7.35894 9.34532 7.35894 9.3476 7.35894 9.34988C7.35894 9.35216 7.35894 9.35446 7.35894 9.35677C7.35894 9.35907 7.35894 9.36139 7.35894 9.36371C7.35894 9.36604 7.35894 9.36838 7.35894 9.37073C7.35894 9.37308 7.35894 9.37544 7.35894 9.37781C7.35894 9.38018 7.35894 9.38256 7.35894 9.38495C7.35894 9.38734 7.35894 9.38974 7.35894 9.39216C7.35894 9.39457 7.35894 9.397 7.35894 9.39943C7.35894 9.40187 7.35894 9.40431 7.35894 9.40677C7.35894 9.40923 7.35894 9.4117 7.35894 9.41418C7.35894 9.41666 7.35894 9.41915 7.35894 9.42165C7.35894 9.42415 7.35894 9.42667 7.35894 9.42919C7.35894 9.43171 7.35894 9.43425 7.35894 9.4368C7.35894 9.43934 7.35894 9.4419 7.35894 9.44447C7.35894 9.44704 7.35894 9.44962 7.35894 9.45221C7.35894 9.4548 7.35894 9.45741 7.35894 9.46002C7.35894 9.46263 7.35894 9.46526 7.35894 9.4679C7.35894 9.47053 7.35894 9.47318 7.35894 9.47584C7.35894 9.4785 7.35894 9.48117 7.35894 9.48386C7.35894 9.48654 7.35894 9.48923 7.35894 9.49194C7.35894 9.49465 7.35894 9.49736 7.35894 9.50009C7.35894 9.50282 7.35894 9.50556 7.35894 9.50832C7.35894 9.51107 7.35894 9.51383 7.35894 9.51661C7.35894 9.51938 7.35894 9.52217 7.35894 9.52497C7.35894 9.52777 7.35894 9.53058 7.35894 9.5334C7.35894 9.53623 7.35894 9.53906 7.35894 9.54191C7.35894 9.54475 7.35894 9.54761 7.35894 9.55048C7.35894 9.55335 7.35894 9.55624 7.35894 9.55913C7.35894 9.56203 7.35894 9.56493 7.35894 9.56785C7.35894 9.57077 7.35894 9.5737 7.35894 9.57664C7.35894 9.57958 7.35894 9.58254 7.35894 9.5855C7.35894 9.58847 7.35894 9.59145 7.35894 9.59444C7.35894 9.59743 7.35894 9.60043 7.35894 9.60345C7.35894 9.60646 7.35894 9.60949 7.35894 9.61253C7.35894 9.61557 7.35894 9.61862 7.35894 9.62169C7.35894 9.62475 7.35894 9.62783 7.35894 9.63091C7.35894 9.634 7.35894 9.6371 7.35894 9.64022C7.35894 9.64333 7.35894 9.64646 7.35894 9.6496C7.35894 9.65273 7.35894 9.65588 7.35894 9.65905C7.35894 9.66221 7.35894 9.66539 7.35894 9.66858C7.35894 9.67176 7.35894 9.67496 7.35894 9.67818C7.35894 9.68139 7.35894 9.68462 7.35894 9.68786C7.35894 9.6911 7.35894 9.69435 7.35894 9.69761C7.35894 9.70088 7.35894 9.70415 7.35894 9.70744C7.35894 9.71073 7.35894 9.71403 7.35894 9.71735C7.35894 9.72066 7.35894 9.72399 7.35894 9.72733C7.35894 9.73067 7.35894 9.73403 7.35894 9.73739C7.35894 9.74076 7.35894 9.74414 7.35894 9.74753C7.35894 9.75093 7.35894 9.75433 7.35894 9.75775C7.35894 9.76117 7.35894 9.7646 7.35894 9.76804C7.35894 9.77149 7.35894 9.77494 7.35894 9.77842C7.35894 9.78189 7.35894 9.78537 7.35894 9.78887C7.35894 9.79236 7.35894 9.79587 7.35894 9.7994C7.35894 9.80292 7.35894 9.80646 7.35894 9.81C7.35894 9.81355 7.35894 9.81712 7.35894 9.82069C7.35894 9.82427 7.35894 9.82786 7.35894 9.83146C7.35894 9.83506 7.35894 9.83868 7.35894 9.84231C7.35894 9.84594 7.35894 9.84958 7.35894 9.85324C7.35894 9.85689 7.35894 9.86056 7.35894 9.86425C7.35894 9.86793 7.35894 9.87163 7.35894 9.87534C7.35894 9.87905 7.35894 9.88277 7.35894 9.88651C7.35894 9.89025 7.35894 9.894 7.35894 9.89776C7.35894 9.90153 7.35894 9.90531 7.35894 9.9091C7.35894 9.91289 7.35894 9.91669 7.35894 9.92051C7.35894 9.92433 7.35894 9.92817 7.35894 9.93201C7.35894 9.93586 7.35894 9.93972 7.35894 9.9436C7.35894 9.94747 7.35894 9.95136 7.35894 9.95526C7.35894 9.95916 7.35894 9.96308 7.35894 9.96701C7.35894 9.97094 7.35894 9.97488 7.35894 9.97884C7.35894 9.9828 7.35894 9.98677 7.35894 9.99076C7.35894 9.99474 7.35894 9.99874 7.35894 10.0028C7.35894 10.0068 7.35894 10.0108 7.35894 10.0148C7.35894 10.0189 7.35894 10.0229 7.35894 10.027C7.35894 10.0311 7.35894 10.0352 7.35894 10.0393C7.35894 10.0434 7.35894 10.0475 7.35894 10.0516C7.35894 10.0557 7.35894 10.0599 7.35894 10.064C7.35894 10.0682 7.35894 10.0724 7.35894 10.0765C7.35894 10.0807 7.35894 10.0849 7.35894 10.0891C7.35894 10.0934 7.35894 10.0976 7.35894 10.1018C7.35894 10.1061 7.35894 10.1103 7.35894 10.1146C7.35894 10.1189 7.35894 10.1232 7.35894 10.1275C7.35894 10.1318 7.35894 10.1361 7.35894 10.1404C7.35894 10.1447 7.35894 10.1491 7.35894 10.1534C7.35894 10.1578 7.35894 10.1622 7.35894 10.1666C7.35894 10.1709 7.35894 10.1754 7.35894 10.1798C7.35894 10.1842 7.35894 10.1886 7.35894 10.1931C7.35894 10.1975 7.35894 10.202 7.35894 10.2065C7.35894 10.2109 7.35894 10.2154 7.35894 10.2199C7.35894 10.2244 7.35894 10.229 7.35894 10.2335C7.35894 10.238 7.35894 10.2426 7.35894 10.2472C7.35894 10.2517 7.35894 10.2563 7.35894 10.2609C7.35894 10.2655 7.35894 10.2701 7.35894 10.2747C7.35894 10.2794 7.35894 10.284 7.35894 10.2887C7.35894 10.2933 7.35894 10.298 7.35894 10.3027C7.35894 10.3074 7.35894 10.3121 7.35894 10.3168C7.35894 10.3215 7.35894 10.3263 7.35894 10.331C7.35894 10.3357 7.35894 10.3405 7.35894 10.3453C7.35894 10.3501 7.35894 10.3549 7.35894 10.3597C7.35894 10.3645 7.35894 10.3693 7.35894 10.3742C7.35894 10.379 7.35894 10.3839 7.35894 10.3887C7.35894 10.3936 7.35894 10.3985 7.35894 10.4034C7.35894 10.4083 7.35894 10.4132 7.35894 10.4182C7.35894 10.4231 7.35894 10.428 7.35894 10.433C7.35894 10.438 7.35894 10.443 7.35894 10.448C7.35894 10.4529 7.35894 10.458 7.35894 10.463C7.35894 10.468 7.35894 10.4731 7.35894 10.4781C7.35894 10.4832 7.35894 10.4883 7.35894 10.4934C7.35894 10.4984 7.35894 10.5036 7.35894 10.5087C7.35894 10.5138 7.35894 10.5189 7.35894 10.5241C7.35894 10.5293 7.35894 10.5344 7.35894 10.5396C7.35894 10.5448 7.35894 10.55 7.35894 10.5552C7.35894 10.5604 7.35894 10.5657 7.35894 10.5709C7.35894 10.5762 7.35894 10.5815 7.35894 10.5867C7.35894 10.592 7.35894 10.5973 7.35894 10.6026C7.35894 10.608 7.35894 10.6133 7.35894 10.6186C7.35894 10.624 7.35894 10.6294 7.35894 10.6347C7.35894 10.6401 7.35894 10.6455 7.35894 10.6509C7.35894 10.6563 7.35894 10.6618 7.35894 10.6672C7.35894 10.6727 7.35894 10.6781 7.35894 10.6836C7.35894 10.6891 7.35894 10.6946 7.35894 10.7001C7.35894 10.7056 7.35894 10.7111 7.35894 10.7167C7.35894 10.7222 7.35894 10.7278 7.35894 10.7334C7.35894 10.739 7.35894 10.7446 7.35894 10.7502C7.35894 10.7558 7.35894 10.7614 7.35894 10.7671C7.35894 10.7727 7.35894 10.7784 7.35894 10.784C7.35894 10.7897 7.35894 10.7954 7.35894 10.8011C7.35894 10.8068 7.35894 10.8126 7.35894 10.8183C7.35894 10.8241 7.35894 10.8298 7.35894 10.8356C7.35894 10.8414 7.35894 10.8472 7.35894 10.853C7.35894 10.8588 7.35894 10.8647 7.35894 10.8705C7.35894 10.8763 7.35894 10.8822 7.35894 10.8881C7.35894 10.894 7.35894 10.8999 7.35894 10.9058C7.35894 10.9117 7.35894 10.9176 7.35894 10.9236C7.35894 10.9295 7.35894 10.9355 7.35894 10.9415C7.35894 10.9475 7.35894 10.9535 7.35894 10.9595C7.35894 10.9655 7.35894 10.9716 7.35894 10.9776C7.35894 10.9837 7.35894 10.9897 7.35894 10.9958C7.35894 11.0019 7.35894 11.008 7.35894 11.0141C7.35894 11.0203 7.35894 11.0264 7.35894 11.0326C7.35894 11.0387 7.35894 11.0449 7.35894 11.0511C7.35894 11.0573 7.35894 11.0635 7.35894 11.0697C7.35894 11.076 7.35894 11.0822 7.35894 11.0885C7.35894 11.0947 7.35894 11.101 7.35894 11.1073C7.35894 11.1136 7.35894 11.1199 7.35894 11.1263C7.35894 11.1326 7.35894 11.1389 7.35894 11.1453C7.35894 11.1517 7.35894 11.1581 7.35894 11.1645C7.35894 11.1709 7.35894 11.1773 7.35894 11.1837C7.35894 11.1902 7.35894 11.1966 7.35894 11.2031C7.35894 11.2096 7.35894 11.2161 7.35894 11.2226C7.35894 11.2291 7.35894 11.2356 7.35894 11.2422C7.35894 11.2487 7.35894 11.2553 7.35894 11.2619C7.35894 11.2685 7.35894 11.2751 7.35894 11.2817C7.35894 11.2883 7.35894 11.2949 7.35894 11.3016C7.35894 11.3083 7.35894 11.3149 7.35894 11.3216C7.35894 11.3283 7.35894 11.335 7.35894 11.3418C7.35894 11.3485 7.35894 11.3552 7.35894 11.362C7.35894 11.3688 7.35894 11.3756 7.35894 11.3824C7.35894 11.3892 7.35894 11.396 7.35894 11.4028C7.35894 11.4097 7.35894 11.4165 7.35894 11.4234C7.35894 11.4303 7.35894 11.4372 7.35894 11.4441C7.35894 11.451 7.35894 11.4579 7.35894 11.4649C7.35894 11.4718 7.35894 11.4788 7.35894 11.4858C7.35894 11.4928 7.35894 11.4998 7.35894 11.5068C7.35894 11.5138 7.35894 11.5209 7.35894 11.5279C7.35894 11.535 7.35894 11.5421 7.35894 11.5492C7.35894 11.5563 7.35894 11.5634 7.35894 11.5705C7.35894 11.5776 7.35894 11.5848 7.35894 11.592C7.35894 11.5991 7.35894 11.6063 7.35894 11.6136C7.35894 11.6208 7.35894 11.628 7.35894 11.6352C7.35894 11.6425 7.35894 11.6498 7.35894 11.657C7.35894 11.6643 7.35894 11.6716 7.35894 11.679C7.35894 11.6863 7.35894 11.6936 7.35894 11.701C7.35894 11.7084 7.35894 11.7157 7.35894 11.7231C7.35894 11.7305 7.35894 11.738 7.35894 11.7454C7.35894 11.7528 7.35894 11.7603 7.35894 11.7678C7.35894 11.7753 7.35894 11.7828 7.35894 11.7903C7.35894 11.7978 7.35894 11.8053 7.35894 11.8129C7.35894 11.8204 7.35894 11.828 7.35894 11.8356C7.35894 11.8432 7.35894 11.8508 7.35894 11.8585C7.35894 11.8661 7.35894 11.8737 7.35894 11.8814C7.35894 11.8891 7.35894 11.8968 7.35894 11.9045C7.35894 11.9122 7.35894 11.9199 7.35894 11.9277C7.35894 11.9354 7.35894 11.9432 7.35894 11.951C7.35894 11.9588 7.35894 11.9666 7.35894 11.9744C7.35894 11.9822 7.35894 11.9901 7.35894 11.998C7.35894 12.0058 7.35894 12.0137 7.35894 12.0216C7.35894 12.0295 7.35894 12.0374 7.35894 12.0454C7.35894 12.0533 7.35894 12.0613 7.35894 12.0693C7.35894 12.0773 7.35894 12.0853 7.35894 12.0933C7.35894 12.1013 7.35894 12.1094 7.35894 12.1175C7.35894 12.1255 7.35894 12.1336 7.35894 12.1417C7.35894 12.1498 7.35894 12.1579 7.35894 12.1661C7.35894 12.1742 7.35894 12.1824 7.35894 12.1906C7.35894 12.1988 7.35894 12.207 7.35894 12.2152C7.35894 12.2234 7.35894 12.2317 7.35894 12.24C7.35894 12.2482 7.35894 12.2565 7.35894 12.2648C7.35894 12.2731 7.35894 12.2814 7.35894 12.2898C7.35894 12.2981 7.35894 12.3065 7.35894 12.3149C7.35894 12.3233 7.35894 12.3317 7.35894 12.3401C7.35894 12.3486 7.35894 12.357 7.35894 12.3655C7.35894 12.3739 7.35894 12.3824 7.35894 12.391C7.35894 12.3995 7.35894 12.408 7.35894 12.4165C7.35894 12.4251 7.35894 12.4337 7.35894 12.4423C7.35894 12.4509 7.35894 12.4595 7.35894 12.4681C7.35894 12.4767 7.35894 12.4854 7.35894 12.4941C7.35894 12.5028 7.35894 12.5114 7.35894 12.5202C7.35894 12.5289 7.35894 12.5376 7.35894 12.5464C7.35894 12.5551 7.35894 12.5639 7.35894 12.5727C7.35894 12.5815 7.35894 12.5903 7.35894 12.5992C7.35894 12.608 7.35894 12.6169 7.35894 12.6258C7.35894 12.6347 7.35894 12.6436 7.35894 12.6525C7.35894 12.6614 7.35894 12.6704 7.35894 12.6793C7.35894 12.6883 7.35894 12.6973 7.35894 12.7063C7.35894 12.7153 7.35894 12.7243 7.35894 12.7334C7.35894 12.7425 7.35894 12.7515 7.35894 12.7606C7.35894 12.7697 7.35894 12.7788 7.35894 12.788C7.35894 12.7971 7.35894 12.8063 7.35894 12.8155C7.35894 12.8246 7.35894 12.8338 7.35894 12.8431C7.35894 12.8523 7.35894 12.8615 7.35894 12.8708C7.35894 12.8801 7.35894 12.8893 7.35894 12.8987C7.35894 12.908 7.35894 12.9173 7.35894 12.9266C7.35894 12.936 7.35894 12.9454 7.35894 12.9548C7.35894 12.9642 7.35894 12.9736 7.35894 12.983C7.35894 12.9924 7.35894 13.0019 7.35894 13.0114C7.35894 13.0209 7.35894 13.0304 7.35894 13.0399C7.35894 13.0494 7.35894 13.059 7.35894 13.0685C7.35894 13.0781 7.35894 13.0877 7.35894 13.0973C7.35894 13.1069 7.35894 13.1165 7.35894 13.1262C7.35894 13.1359 7.35894 13.1455 7.35894 13.1552C7.35894 13.1649 7.35894 13.1746 7.35894 13.1844C7.35894 13.1941 7.35894 13.2039 7.35894 13.2137C7.35894 13.2235 7.35894 13.2333 7.35894 13.2431C7.35894 13.2529 7.35894 13.2628 7.35894 13.2727C7.35894 13.2825 7.35894 13.2924 7.35894 13.3024C7.35894 13.3123 7.35894 13.3222 7.35894 13.3322C7.35894 13.3421 7.35894 13.3521 7.35894 13.3621C7.35894 13.3721 7.35894 13.3822 7.35894 13.3922C7.35894 13.4023 7.35894 13.4124 7.35894 13.4225C7.35894 13.4325 7.35894 13.4427 7.35894 13.4528C7.35894 13.4629 7.35894 13.4731 7.35894 13.4833C7.35894 13.4935 7.35894 13.5037 7.35894 13.5139C7.35894 13.5242 7.35894 13.5344 7.35894 13.5447C7.35894 13.555 7.35894 13.5653 7.35894 13.5756C7.35894 13.5859 7.35894 13.5962 7.35894 13.6066C7.35894 13.617 7.35894 13.6274 7.35894 13.6378C7.35894 13.6482 7.35894 13.6586 7.35894 13.6691C7.35894 13.6795 7.35894 13.69 7.35894 13.7005C7.35894 13.711 7.35894 13.7216 7.35894 13.7321C7.35894 13.7427 7.35894 13.7532 7.35894 13.7638C7.35894 13.7744 7.35894 13.785 7.35894 13.7957C7.35894 13.8063 7.35894 13.817 7.35894 13.8277C7.35894 13.8383 7.35894 13.8491 7.35894 13.8598C7.35894 13.8705 7.35894 13.8813 7.35894 13.892C7.35894 13.9028 7.35894 13.9136 7.35894 13.9245C7.35894 13.9353 7.35894 13.9461 7.35894 13.957C7.35894 13.9679 7.35894 13.9788 7.35894 13.9897C7.35894 14.0006 7.35894 14.0115 7.35894 14.0225C7.35894 14.0335 7.35894 14.0444 7.35894 14.0555C7.35894 14.0665 7.35894 14.0775 7.35894 14.0886C7.35894 14.0996 7.35894 14.1107 7.35894 14.1218C7.35894 14.1329 7.35894 14.144 7.35894 14.1552C7.35894 14.1663 7.35894 14.1775 7.35894 14.1887C7.35894 14.1999 7.35894 14.2111 7.35894 14.2224C7.35894 14.2336 7.35894 14.2449 7.35894 14.2562C7.35894 14.2675 7.35894 14.2788 7.35894 14.2901C7.35894 14.3015 7.35894 14.3128 7.35894 14.3242C7.35894 14.3356 7.35894 14.347 7.35894 14.3584C7.35894 14.3699 7.35894 14.3813 7.35894 14.3928C7.35894 14.4043 7.35894 14.4158 7.35894 14.4273C7.35894 14.4388 7.35894 14.4504 7.35894 14.462C7.35894 14.4736 7.35894 14.4852 7.35894 14.4968C7.35894 14.5084 7.35894 14.5201 7.35894 14.5317C7.35894 14.5434 7.35894 14.5551 7.35894 14.5668C7.35894 14.5785 7.35894 14.5903 7.35894 14.6021C7.35894 14.6138 7.35894 14.6256 7.35894 14.6374C7.35894 14.6493 7.35894 14.6611 7.35894 14.673C7.35894 14.6848 7.35894 14.6967 7.35894 14.7086C7.35894 14.7205 7.35894 14.7325 7.35894 14.7444C7.35894 14.7564 7.35894 14.7684 7.35894 14.7804C7.35894 14.7924 7.35894 14.8045 7.35894 14.8165C7.35894 14.8286 7.35894 14.8407 7.35894 14.8528C7.35894 14.8649 7.35894 14.877 7.35894 14.8892C7.35894 14.9013 7.35894 14.9135 7.35894 14.9257C7.35894 14.9379 7.35894 14.9502 7.35894 14.9624C7.35894 14.9747 7.35894 14.9869 7.35894 14.9993C7.35894 15.0116 7.35894 15.0239 7.35894 15.0362C7.35894 15.0486 7.35894 15.061 7.35894 15.0734C7.35894 15.0858 7.35894 15.0982 7.35894 15.1107C7.35894 15.1231 7.35894 15.1356 7.35894 15.1481C7.35894 15.1606 7.35894 15.1731 7.35894 15.1857C7.35894 15.1982 7.35894 15.2108 7.35894 15.2234C7.35894 15.236 7.35894 15.2487 7.35894 15.2613C7.35894 15.274 7.35894 15.2866 7.35894 15.2994C7.35894 15.3121 7.35894 15.3248 7.35894 15.3375C7.35894 15.3503 7.35894 15.3631 7.35894 15.3759C7.35894 15.3887 7.35894 15.4015 7.35894 15.4144C7.35894 15.4272 7.35894 15.4401 7.35894 15.453C7.35894 15.4659 7.35894 15.4788 7.35894 15.4918H10.3589C10.3589 15.4788 10.3589 15.4659 10.3589 15.453C10.3589 15.4401 10.3589 15.4272 10.3589 15.4144C10.3589 15.4015 10.3589 15.3887 10.3589 15.3759C10.3589 15.3631 10.3589 15.3503 10.3589 15.3375C10.3589 15.3248 10.3589 15.3121 10.3589 15.2994C10.3589 15.2866 10.3589 15.274 10.3589 15.2613C10.3589 15.2487 10.3589 15.236 10.3589 15.2234C10.3589 15.2108 10.3589 15.1982 10.3589 15.1857C10.3589 15.1731 10.3589 15.1606 10.3589 15.1481C10.3589 15.1356 10.3589 15.1231 10.3589 15.1107C10.3589 15.0982 10.3589 15.0858 10.3589 15.0734C10.3589 15.061 10.3589 15.0486 10.3589 15.0362C10.3589 15.0239 10.3589 15.0116 10.3589 14.9993C10.3589 14.9869 10.3589 14.9747 10.3589 14.9624C10.3589 14.9502 10.3589 14.9379 10.3589 14.9257C10.3589 14.9135 10.3589 14.9013 10.3589 14.8892C10.3589 14.877 10.3589 14.8649 10.3589 14.8528C10.3589 14.8407 10.3589 14.8286 10.3589 14.8165C10.3589 14.8045 10.3589 14.7924 10.3589 14.7804C10.3589 14.7684 10.3589 14.7564 10.3589 14.7444C10.3589 14.7325 10.3589 14.7205 10.3589 14.7086C10.3589 14.6967 10.3589 14.6848 10.3589 14.673C10.3589 14.6611 10.3589 14.6493 10.3589 14.6374C10.3589 14.6256 10.3589 14.6138 10.3589 14.6021C10.3589 14.5903 10.3589 14.5785 10.3589 14.5668C10.3589 14.5551 10.3589 14.5434 10.3589 14.5317C10.3589 14.5201 10.3589 14.5084 10.3589 14.4968C10.3589 14.4852 10.3589 14.4736 10.3589 14.462C10.3589 14.4504 10.3589 14.4388 10.3589 14.4273C10.3589 14.4158 10.3589 14.4043 10.3589 14.3928C10.3589 14.3813 10.3589 14.3699 10.3589 14.3584C10.3589 14.347 10.3589 14.3356 10.3589 14.3242C10.3589 14.3128 10.3589 14.3015 10.3589 14.2901C10.3589 14.2788 10.3589 14.2675 10.3589 14.2562C10.3589 14.2449 10.3589 14.2336 10.3589 14.2224C10.3589 14.2111 10.3589 14.1999 10.3589 14.1887C10.3589 14.1775 10.3589 14.1663 10.3589 14.1552C10.3589 14.144 10.3589 14.1329 10.3589 14.1218C10.3589 14.1107 10.3589 14.0996 10.3589 14.0886C10.3589 14.0775 10.3589 14.0665 10.3589 14.0555C10.3589 14.0444 10.3589 14.0335 10.3589 14.0225C10.3589 14.0115 10.3589 14.0006 10.3589 13.9897C10.3589 13.9788 10.3589 13.9679 10.3589 13.957C10.3589 13.9461 10.3589 13.9353 10.3589 13.9245C10.3589 13.9136 10.3589 13.9028 10.3589 13.892C10.3589 13.8813 10.3589 13.8705 10.3589 13.8598C10.3589 13.8491 10.3589 13.8383 10.3589 13.8277C10.3589 13.817 10.3589 13.8063 10.3589 13.7957C10.3589 13.785 10.3589 13.7744 10.3589 13.7638C10.3589 13.7532 10.3589 13.7427 10.3589 13.7321C10.3589 13.7216 10.3589 13.711 10.3589 13.7005C10.3589 13.69 10.3589 13.6795 10.3589 13.6691C10.3589 13.6586 10.3589 13.6482 10.3589 13.6378C10.3589 13.6274 10.3589 13.617 10.3589 13.6066C10.3589 13.5962 10.3589 13.5859 10.3589 13.5756C10.3589 13.5653 10.3589 13.555 10.3589 13.5447C10.3589 13.5344 10.3589 13.5242 10.3589 13.5139C10.3589 13.5037 10.3589 13.4935 10.3589 13.4833C10.3589 13.4731 10.3589 13.4629 10.3589 13.4528C10.3589 13.4427 10.3589 13.4325 10.3589 13.4225C10.3589 13.4124 10.3589 13.4023 10.3589 13.3922C10.3589 13.3822 10.3589 13.3721 10.3589 13.3621C10.3589 13.3521 10.3589 13.3421 10.3589 13.3322C10.3589 13.3222 10.3589 13.3123 10.3589 13.3024C10.3589 13.2924 10.3589 13.2825 10.3589 13.2727C10.3589 13.2628 10.3589 13.2529 10.3589 13.2431C10.3589 13.2333 10.3589 13.2235 10.3589 13.2137C10.3589 13.2039 10.3589 13.1941 10.3589 13.1844C10.3589 13.1746 10.3589 13.1649 10.3589 13.1552C10.3589 13.1455 10.3589 13.1359 10.3589 13.1262C10.3589 13.1165 10.3589 13.1069 10.3589 13.0973C10.3589 13.0877 10.3589 13.0781 10.3589 13.0685C10.3589 13.059 10.3589 13.0494 10.3589 13.0399C10.3589 13.0304 10.3589 13.0209 10.3589 13.0114C10.3589 13.0019 10.3589 12.9924 10.3589 12.983C10.3589 12.9736 10.3589 12.9642 10.3589 12.9548C10.3589 12.9454 10.3589 12.936 10.3589 12.9266C10.3589 12.9173 10.3589 12.908 10.3589 12.8987C10.3589 12.8893 10.3589 12.8801 10.3589 12.8708C10.3589 12.8615 10.3589 12.8523 10.3589 12.8431C10.3589 12.8338 10.3589 12.8246 10.3589 12.8155C10.3589 12.8063 10.3589 12.7971 10.3589 12.788C10.3589 12.7788 10.3589 12.7697 10.3589 12.7606C10.3589 12.7515 10.3589 12.7425 10.3589 12.7334C10.3589 12.7243 10.3589 12.7153 10.3589 12.7063C10.3589 12.6973 10.3589 12.6883 10.3589 12.6793C10.3589 12.6704 10.3589 12.6614 10.3589 12.6525C10.3589 12.6436 10.3589 12.6347 10.3589 12.6258C10.3589 12.6169 10.3589 12.608 10.3589 12.5992C10.3589 12.5903 10.3589 12.5815 10.3589 12.5727C10.3589 12.5639 10.3589 12.5551 10.3589 12.5464C10.3589 12.5376 10.3589 12.5289 10.3589 12.5202C10.3589 12.5114 10.3589 12.5028 10.3589 12.4941C10.3589 12.4854 10.3589 12.4767 10.3589 12.4681C10.3589 12.4595 10.3589 12.4509 10.3589 12.4423C10.3589 12.4337 10.3589 12.4251 10.3589 12.4165C10.3589 12.408 10.3589 12.3995 10.3589 12.391C10.3589 12.3824 10.3589 12.3739 10.3589 12.3655C10.3589 12.357 10.3589 12.3486 10.3589 12.3401C10.3589 12.3317 10.3589 12.3233 10.3589 12.3149C10.3589 12.3065 10.3589 12.2981 10.3589 12.2898C10.3589 12.2814 10.3589 12.2731 10.3589 12.2648C10.3589 12.2565 10.3589 12.2482 10.3589 12.24C10.3589 12.2317 10.3589 12.2234 10.3589 12.2152C10.3589 12.207 10.3589 12.1988 10.3589 12.1906C10.3589 12.1824 10.3589 12.1742 10.3589 12.1661C10.3589 12.1579 10.3589 12.1498 10.3589 12.1417C10.3589 12.1336 10.3589 12.1255 10.3589 12.1175C10.3589 12.1094 10.3589 12.1013 10.3589 12.0933C10.3589 12.0853 10.3589 12.0773 10.3589 12.0693C10.3589 12.0613 10.3589 12.0533 10.3589 12.0454C10.3589 12.0374 10.3589 12.0295 10.3589 12.0216C10.3589 12.0137 10.3589 12.0058 10.3589 11.998C10.3589 11.9901 10.3589 11.9822 10.3589 11.9744C10.3589 11.9666 10.3589 11.9588 10.3589 11.951C10.3589 11.9432 10.3589 11.9354 10.3589 11.9277C10.3589 11.9199 10.3589 11.9122 10.3589 11.9045C10.3589 11.8968 10.3589 11.8891 10.3589 11.8814C10.3589 11.8737 10.3589 11.8661 10.3589 11.8585C10.3589 11.8508 10.3589 11.8432 10.3589 11.8356C10.3589 11.828 10.3589 11.8204 10.3589 11.8129C10.3589 11.8053 10.3589 11.7978 10.3589 11.7903C10.3589 11.7828 10.3589 11.7753 10.3589 11.7678C10.3589 11.7603 10.3589 11.7528 10.3589 11.7454C10.3589 11.738 10.3589 11.7305 10.3589 11.7231C10.3589 11.7157 10.3589 11.7084 10.3589 11.701C10.3589 11.6936 10.3589 11.6863 10.3589 11.679C10.3589 11.6716 10.3589 11.6643 10.3589 11.657C10.3589 11.6498 10.3589 11.6425 10.3589 11.6352C10.3589 11.628 10.3589 11.6208 10.3589 11.6136C10.3589 11.6063 10.3589 11.5991 10.3589 11.592C10.3589 11.5848 10.3589 11.5776 10.3589 11.5705C10.3589 11.5634 10.3589 11.5563 10.3589 11.5492C10.3589 11.5421 10.3589 11.535 10.3589 11.5279C10.3589 11.5209 10.3589 11.5138 10.3589 11.5068C10.3589 11.4998 10.3589 11.4928 10.3589 11.4858C10.3589 11.4788 10.3589 11.4718 10.3589 11.4649C10.3589 11.4579 10.3589 11.451 10.3589 11.4441C10.3589 11.4372 10.3589 11.4303 10.3589 11.4234C10.3589 11.4165 10.3589 11.4097 10.3589 11.4028C10.3589 11.396 10.3589 11.3892 10.3589 11.3824C10.3589 11.3756 10.3589 11.3688 10.3589 11.362C10.3589 11.3552 10.3589 11.3485 10.3589 11.3418C10.3589 11.335 10.3589 11.3283 10.3589 11.3216C10.3589 11.3149 10.3589 11.3083 10.3589 11.3016C10.3589 11.2949 10.3589 11.2883 10.3589 11.2817C10.3589 11.2751 10.3589 11.2685 10.3589 11.2619C10.3589 11.2553 10.3589 11.2487 10.3589 11.2422C10.3589 11.2356 10.3589 11.2291 10.3589 11.2226C10.3589 11.2161 10.3589 11.2096 10.3589 11.2031C10.3589 11.1966 10.3589 11.1902 10.3589 11.1837C10.3589 11.1773 10.3589 11.1709 10.3589 11.1645C10.3589 11.1581 10.3589 11.1517 10.3589 11.1453C10.3589 11.1389 10.3589 11.1326 10.3589 11.1263C10.3589 11.1199 10.3589 11.1136 10.3589 11.1073C10.3589 11.101 10.3589 11.0947 10.3589 11.0885C10.3589 11.0822 10.3589 11.076 10.3589 11.0697C10.3589 11.0635 10.3589 11.0573 10.3589 11.0511C10.3589 11.0449 10.3589 11.0387 10.3589 11.0326C10.3589 11.0264 10.3589 11.0203 10.3589 11.0141C10.3589 11.008 10.3589 11.0019 10.3589 10.9958C10.3589 10.9897 10.3589 10.9837 10.3589 10.9776C10.3589 10.9716 10.3589 10.9655 10.3589 10.9595C10.3589 10.9535 10.3589 10.9475 10.3589 10.9415C10.3589 10.9355 10.3589 10.9295 10.3589 10.9236C10.3589 10.9176 10.3589 10.9117 10.3589 10.9058C10.3589 10.8999 10.3589 10.894 10.3589 10.8881C10.3589 10.8822 10.3589 10.8763 10.3589 10.8705C10.3589 10.8647 10.3589 10.8588 10.3589 10.853C10.3589 10.8472 10.3589 10.8414 10.3589 10.8356C10.3589 10.8298 10.3589 10.8241 10.3589 10.8183C10.3589 10.8126 10.3589 10.8068 10.3589 10.8011C10.3589 10.7954 10.3589 10.7897 10.3589 10.784C10.3589 10.7784 10.3589 10.7727 10.3589 10.7671C10.3589 10.7614 10.3589 10.7558 10.3589 10.7502C10.3589 10.7446 10.3589 10.739 10.3589 10.7334C10.3589 10.7278 10.3589 10.7222 10.3589 10.7167C10.3589 10.7111 10.3589 10.7056 10.3589 10.7001C10.3589 10.6946 10.3589 10.6891 10.3589 10.6836C10.3589 10.6781 10.3589 10.6727 10.3589 10.6672C10.3589 10.6618 10.3589 10.6563 10.3589 10.6509C10.3589 10.6455 10.3589 10.6401 10.3589 10.6347C10.3589 10.6294 10.3589 10.624 10.3589 10.6186C10.3589 10.6133 10.3589 10.608 10.3589 10.6026C10.3589 10.5973 10.3589 10.592 10.3589 10.5867C10.3589 10.5815 10.3589 10.5762 10.3589 10.5709C10.3589 10.5657 10.3589 10.5604 10.3589 10.5552C10.3589 10.55 10.3589 10.5448 10.3589 10.5396C10.3589 10.5344 10.3589 10.5293 10.3589 10.5241C10.3589 10.5189 10.3589 10.5138 10.3589 10.5087C10.3589 10.5036 10.3589 10.4984 10.3589 10.4934C10.3589 10.4883 10.3589 10.4832 10.3589 10.4781C10.3589 10.4731 10.3589 10.468 10.3589 10.463C10.3589 10.458 10.3589 10.4529 10.3589 10.448C10.3589 10.443 10.3589 10.438 10.3589 10.433C10.3589 10.428 10.3589 10.4231 10.3589 10.4182C10.3589 10.4132 10.3589 10.4083 10.3589 10.4034C10.3589 10.3985 10.3589 10.3936 10.3589 10.3887C10.3589 10.3839 10.3589 10.379 10.3589 10.3742C10.3589 10.3693 10.3589 10.3645 10.3589 10.3597C10.3589 10.3549 10.3589 10.3501 10.3589 10.3453C10.3589 10.3405 10.3589 10.3357 10.3589 10.331C10.3589 10.3263 10.3589 10.3215 10.3589 10.3168C10.3589 10.3121 10.3589 10.3074 10.3589 10.3027C10.3589 10.298 10.3589 10.2933 10.3589 10.2887C10.3589 10.284 10.3589 10.2794 10.3589 10.2747C10.3589 10.2701 10.3589 10.2655 10.3589 10.2609C10.3589 10.2563 10.3589 10.2517 10.3589 10.2472C10.3589 10.2426 10.3589 10.238 10.3589 10.2335C10.3589 10.229 10.3589 10.2244 10.3589 10.2199C10.3589 10.2154 10.3589 10.2109 10.3589 10.2065C10.3589 10.202 10.3589 10.1975 10.3589 10.1931C10.3589 10.1886 10.3589 10.1842 10.3589 10.1798C10.3589 10.1754 10.3589 10.1709 10.3589 10.1666C10.3589 10.1622 10.3589 10.1578 10.3589 10.1534C10.3589 10.1491 10.3589 10.1447 10.3589 10.1404C10.3589 10.1361 10.3589 10.1318 10.3589 10.1275C10.3589 10.1232 10.3589 10.1189 10.3589 10.1146C10.3589 10.1103 10.3589 10.1061 10.3589 10.1018C10.3589 10.0976 10.3589 10.0934 10.3589 10.0891C10.3589 10.0849 10.3589 10.0807 10.3589 10.0765C10.3589 10.0724 10.3589 10.0682 10.3589 10.064C10.3589 10.0599 10.3589 10.0557 10.3589 10.0516C10.3589 10.0475 10.3589 10.0434 10.3589 10.0393C10.3589 10.0352 10.3589 10.0311 10.3589 10.027C10.3589 10.0229 10.3589 10.0189 10.3589 10.0148C10.3589 10.0108 10.3589 10.0068 10.3589 10.0028C10.3589 9.99874 10.3589 9.99474 10.3589 9.99076C10.3589 9.98677 10.3589 9.9828 10.3589 9.97884C10.3589 9.97488 10.3589 9.97094 10.3589 9.96701C10.3589 9.96308 10.3589 9.95916 10.3589 9.95526C10.3589 9.95136 10.3589 9.94747 10.3589 9.9436C10.3589 9.93972 10.3589 9.93586 10.3589 9.93201C10.3589 9.92817 10.3589 9.92433 10.3589 9.92051C10.3589 9.91669 10.3589 9.91289 10.3589 9.9091C10.3589 9.90531 10.3589 9.90153 10.3589 9.89776C10.3589 9.894 10.3589 9.89025 10.3589 9.88651C10.3589 9.88277 10.3589 9.87905 10.3589 9.87534C10.3589 9.87163 10.3589 9.86793 10.3589 9.86425C10.3589 9.86056 10.3589 9.85689 10.3589 9.85324C10.3589 9.84958 10.3589 9.84594 10.3589 9.84231C10.3589 9.83868 10.3589 9.83506 10.3589 9.83146C10.3589 9.82786 10.3589 9.82427 10.3589 9.82069C10.3589 9.81712 10.3589 9.81355 10.3589 9.81C10.3589 9.80646 10.3589 9.80292 10.3589 9.7994C10.3589 9.79587 10.3589 9.79236 10.3589 9.78887C10.3589 9.78537 10.3589 9.78189 10.3589 9.77842C10.3589 9.77494 10.3589 9.77149 10.3589 9.76804C10.3589 9.7646 10.3589 9.76117 10.3589 9.75775C10.3589 9.75433 10.3589 9.75093 10.3589 9.74753C10.3589 9.74414 10.3589 9.74076 10.3589 9.73739C10.3589 9.73403 10.3589 9.73067 10.3589 9.72733C10.3589 9.72399 10.3589 9.72066 10.3589 9.71735C10.3589 9.71403 10.3589 9.71073 10.3589 9.70744C10.3589 9.70415 10.3589 9.70088 10.3589 9.69761C10.3589 9.69435 10.3589 9.6911 10.3589 9.68786C10.3589 9.68462 10.3589 9.68139 10.3589 9.67818C10.3589 9.67496 10.3589 9.67176 10.3589 9.66858C10.3589 9.66539 10.3589 9.66221 10.3589 9.65905C10.3589 9.65588 10.3589 9.65273 10.3589 9.6496C10.3589 9.64646 10.3589 9.64333 10.3589 9.64022C10.3589 9.6371 10.3589 9.634 10.3589 9.63091C10.3589 9.62783 10.3589 9.62475 10.3589 9.62169C10.3589 9.61862 10.3589 9.61557 10.3589 9.61253C10.3589 9.60949 10.3589 9.60646 10.3589 9.60345C10.3589 9.60043 10.3589 9.59743 10.3589 9.59444C10.3589 9.59145 10.3589 9.58847 10.3589 9.5855C10.3589 9.58254 10.3589 9.57958 10.3589 9.57664C10.3589 9.5737 10.3589 9.57077 10.3589 9.56785C10.3589 9.56493 10.3589 9.56203 10.3589 9.55913C10.3589 9.55624 10.3589 9.55335 10.3589 9.55048C10.3589 9.54761 10.3589 9.54475 10.3589 9.54191C10.3589 9.53906 10.3589 9.53623 10.3589 9.5334C10.3589 9.53058 10.3589 9.52777 10.3589 9.52497C10.3589 9.52217 10.3589 9.51938 10.3589 9.51661C10.3589 9.51383 10.3589 9.51107 10.3589 9.50832C10.3589 9.50556 10.3589 9.50282 10.3589 9.50009C10.3589 9.49736 10.3589 9.49465 10.3589 9.49194C10.3589 9.48923 10.3589 9.48654 10.3589 9.48386C10.3589 9.48117 10.3589 9.4785 10.3589 9.47584C10.3589 9.47318 10.3589 9.47053 10.3589 9.4679C10.3589 9.46526 10.3589 9.46263 10.3589 9.46002C10.3589 9.45741 10.3589 9.4548 10.3589 9.45221C10.3589 9.44962 10.3589 9.44704 10.3589 9.44447C10.3589 9.4419 10.3589 9.43934 10.3589 9.4368C10.3589 9.43425 10.3589 9.43171 10.3589 9.42919C10.3589 9.42667 10.3589 9.42415 10.3589 9.42165C10.3589 9.41915 10.3589 9.41666 10.3589 9.41418C10.3589 9.4117 10.3589 9.40923 10.3589 9.40677C10.3589 9.40431 10.3589 9.40187 10.3589 9.39943C10.3589 9.397 10.3589 9.39457 10.3589 9.39216C10.3589 9.38974 10.3589 9.38734 10.3589 9.38495C10.3589 9.38256 10.3589 9.38018 10.3589 9.37781C10.3589 9.37544 10.3589 9.37308 10.3589 9.37073C10.3589 9.36838 10.3589 9.36604 10.3589 9.36371C10.3589 9.36139 10.3589 9.35907 10.3589 9.35677C10.3589 9.35446 10.3589 9.35216 10.3589 9.34988C10.3589 9.3476 10.3589 9.34532 10.3589 9.34306C10.3589 9.3408 10.3589 9.33854 10.3589 9.3363C10.3589 9.33406 10.3589 9.33183 10.3589 9.32961C10.3589 9.32738 10.3589 9.32517 10.3589 9.32297C10.3589 9.32077 10.3589 9.31858 10.3589 9.3164C10.3589 9.31422 10.3589 9.31206 10.3589 9.3099C10.3589 9.30774 10.3589 9.30559 10.3589 9.30345C10.3589 9.30131 10.3589 9.29919 10.3589 9.29707C10.3589 9.29495 10.3589 9.29284 10.3589 9.29075C10.3589 9.28865 10.3589 9.28656 10.3589 9.28448C10.3589 9.28241 10.3589 9.28034 10.3589 9.27829C10.3589 9.27623 10.3589 9.27418 10.3589 9.27214C10.3589 9.27011 10.3589 9.26808 10.3589 9.26607C10.3589 9.26405 10.3589 9.26204 10.3589 9.26005C10.3589 9.25805 10.3589 9.25606 10.3589 9.25409C10.3589 9.25211 10.3589 9.25014 10.3589 9.24818C10.3589 9.24623 10.3589 9.24428 10.3589 9.24234C10.3589 9.24041 10.3589 9.23848 10.3589 9.23656C10.3589 9.23464 10.3589 9.23273 10.3589 9.23083C10.3589 9.22894 10.3589 9.22705 10.3589 9.22517C10.3589 9.22329 10.3589 9.22142 10.3589 9.21956C10.3589 9.2177 10.3589 9.21585 10.3589 9.21401C10.3589 9.21217 10.3589 9.21034 10.3589 9.20851C10.3589 9.20669 10.3589 9.20488 10.3589 9.20308C10.3589 9.20127 10.3589 9.19948 10.3589 9.1977C10.3589 9.19591 10.3589 9.19414 10.3589 9.19237C10.3589 9.19061 10.3589 9.18885 10.3589 9.18711C10.3589 9.18536 10.3589 9.18362 10.3589 9.18189C10.3589 9.18016 10.3589 9.17845 10.3589 9.17674C10.3589 9.17503 10.3589 9.17333 10.3589 9.17163C10.3589 9.16994 10.3589 9.16826 10.3589 9.16659C10.3589 9.16491 10.3589 9.16325 10.3589 9.16159C10.3589 9.15994 10.3589 9.15829 10.3589 9.15666C10.3589 9.15502 10.3589 9.15339 10.3589 9.15177C10.3589 9.15015 10.3589 9.14854 10.3589 9.14694C10.3589 9.14534 10.3589 9.14375 10.3589 9.14217C10.3589 9.14058 10.3589 9.13901 10.3589 9.13744C10.3589 9.13588 10.3589 9.13432 10.3589 9.13277C10.3589 9.13122 10.3589 9.12968 10.3589 9.12815C10.3589 9.12662 10.3589 9.1251 10.3589 9.12359C10.3589 9.12207 10.3589 9.12057 10.3589 9.11907C10.3589 9.11757 10.3589 9.11609 10.3589 9.11461C10.3589 9.11313 10.3589 9.11166 10.3589 9.1102C10.3589 9.10873 10.3589 9.10728 10.3589 9.10584C10.3589 9.10439 10.3589 9.10295 10.3589 9.10153C10.3589 9.1001 10.3589 9.09868 10.3589 9.09727C10.3589 9.09585 10.3589 9.09445 10.3589 9.09306C10.3589 9.09166 10.3589 9.09027 10.3589 9.0889C10.3589 9.08752 10.3589 9.08615 10.3589 9.08479C10.3589 9.08342 10.3589 9.08207 10.3589 9.08073C10.3589 9.07938 10.3589 9.07804 10.3589 9.07671C10.3589 9.07538 10.3589 9.07406 10.3589 9.07275C10.3589 9.07144 10.3589 9.07013 10.3589 9.06884C10.3589 9.06754 10.3589 9.06625 10.3589 9.06497C10.3589 9.06369 10.3589 9.06241 10.3589 9.06115C10.3589 9.05988 10.3589 9.05863 10.3589 9.05738C10.3589 9.05613 10.3589 9.05489 10.3589 9.05365C10.3589 9.05242 10.3589 9.05119 10.3589 9.04997C10.3589 9.04876 10.3589 9.04755 10.3589 9.04634C10.3589 9.04514 10.3589 9.04395 10.3589 9.04276C10.3589 9.04157 10.3589 9.04039 10.3589 9.03922C10.3589 9.03805 10.3589 9.03688 10.3589 9.03573C10.3589 9.03457 10.3589 9.03342 10.3589 9.03228C10.3589 9.03114 10.3589 9.03 10.3589 9.02888C10.3589 9.02775 10.3589 9.02663 10.3589 9.02552C10.3589 9.02441 10.3589 9.0233 10.3589 9.0222C10.3589 9.02111 10.3589 9.02002 10.3589 9.01893C10.3589 9.01785 10.3589 9.01678 10.3589 9.01571C10.3589 9.01464 10.3589 9.01358 10.3589 9.01253C10.3589 9.01147 10.3589 9.01043 10.3589 9.00939C10.3589 9.00835 10.3589 9.00732 10.3589 9.00629C10.3589 9.00527 10.3589 9.00425 10.3589 9.00324C10.3589 9.00223 10.3589 9.00122 10.3589 9.00023C10.3589 8.99923 10.3589 8.99824 10.3589 8.99726C10.3589 8.99628 10.3589 8.9953 10.3589 8.99433C10.3589 8.99336 10.3589 8.9924 10.3589 8.99145C10.3589 8.99049 10.3589 8.98954 10.3589 8.9886C10.3589 8.98766 10.3589 8.98673 10.3589 8.9858C10.3589 8.98487 10.3589 8.98395 10.3589 8.98304C10.3589 8.98212 10.3589 8.98122 10.3589 8.98032C10.3589 8.97942 10.3589 8.97852 10.3589 8.97763C10.3589 8.97675 10.3589 8.97587 10.3589 8.97499C10.3589 8.97412 10.3589 8.97325 10.3589 8.97239C10.3589 8.97153 10.3589 8.97067 10.3589 8.96983C10.3589 8.96898 10.3589 8.96814 10.3589 8.9673C10.3589 8.96646 10.3589 8.96564 10.3589 8.96481C10.3589 8.96399 10.3589 8.96318 10.3589 8.96237C10.3589 8.96156 10.3589 8.96075 10.3589 8.95996C10.3589 8.95916 10.3589 8.95837 10.3589 8.95758C10.3589 8.9568 10.3589 8.95602 10.3589 8.95525C10.3589 8.95448 10.3589 8.95371 10.3589 8.95295C10.3589 8.95219 10.3589 8.95144 10.3589 8.95069C10.3589 8.94994 10.3589 8.9492 10.3589 8.94846C10.3589 8.94773 10.3589 8.947 10.3589 8.94627C10.3589 8.94555 10.3589 8.94483 10.3589 8.94412C10.3589 8.94341 10.3589 8.9427 10.3589 8.94201C10.3589 8.94131 10.3589 8.94061 10.3589 8.93992C10.3589 8.93923 10.3589 8.93855 10.3589 8.93788C10.3589 8.9372 10.3589 8.93653 10.3589 8.93586C10.3589 8.9352 10.3589 8.93454 10.3589 8.93389C10.3589 8.93323 10.3589 8.93258 10.3589 8.93194C10.3589 8.9313 10.3589 8.93066 10.3589 8.93003C10.3589 8.9294 10.3589 8.92878 10.3589 8.92816C10.3589 8.92754 10.3589 8.92692 10.3589 8.92631C10.3589 8.9257 10.3589 8.9251 10.3589 8.9245C10.3589 8.9239 10.3589 8.92331 10.3589 8.92272C10.3589 8.92214 10.3589 8.92156 10.3589 8.92098C10.3589 8.9204 10.3589 8.91983 10.3589 8.91927C10.3589 8.9187 10.3589 8.91814 10.3589 8.91758C10.3589 8.91703 10.3589 8.91648 10.3589 8.91593C10.3589 8.91539 10.3589 8.91485 10.3589 8.91432C10.3589 8.91378 10.3589 8.91325 10.3589 8.91273C10.3589 8.9122 10.3589 8.91168 10.3589 8.91117C10.3589 8.91066 10.3589 8.91015 10.3589 8.90964C10.3589 8.90914 10.3589 8.90864 10.3589 8.90814C10.3589 8.90765 10.3589 8.90716 10.3589 8.90668C10.3589 8.90619 10.3589 8.90571 10.3589 8.90524C10.3589 8.90476 10.3589 8.90429 10.3589 8.90383C10.3589 8.90336 10.3589 8.9029 10.3589 8.90245C10.3589 8.90199 10.3589 8.90154 10.3589 8.9011C10.3589 8.90065 10.3589 8.90021 10.3589 8.89977C10.3589 8.89933 10.3589 8.8989 10.3589 8.89848C10.3589 8.89805 10.3589 8.89763 10.3589 8.89721C10.3589 8.89679 10.3589 8.89638 10.3589 8.89597C10.3589 8.89556 10.3589 8.89515 10.3589 8.89475C10.3589 8.89435 10.3589 8.89396 10.3589 8.89356C10.3589 8.89317 10.3589 8.89279 10.3589 8.8924C10.3589 8.89202 10.3589 8.89164 10.3589 8.89127C10.3589 8.89089 10.3589 8.89052 10.3589 8.89016C10.3589 8.88979 10.3589 8.88943 10.3589 8.88907C10.3589 8.88872 10.3589 8.88836 10.3589 8.88802C10.3589 8.88767 10.3589 8.88732 10.3589 8.88698C10.3589 8.88664 10.3589 8.88631 10.3589 8.88597C10.3589 8.88564 10.3589 8.88531 10.3589 8.88499C10.3589 8.88466 10.3589 8.88434 10.3589 8.88403C10.3589 8.88371 10.3589 8.8834 10.3589 8.88309C10.3589 8.88278 10.3589 8.88248 10.3589 8.88218C10.3589 8.88188 10.3589 8.88158 10.3589 8.88129C10.3589 8.88099 10.3589 8.8807 10.3589 8.88042C10.3589 8.88013 10.3589 8.87985 10.3589 8.87957C10.3589 8.8793 10.3589 8.87902 10.3589 8.87875C10.3589 8.87848 10.3589 8.87821 10.3589 8.87795C10.3589 8.87769 10.3589 8.87743 10.3589 8.87717C10.3589 8.87691 10.3589 8.87666 10.3589 8.87641C10.3589 8.87616 10.3589 8.87592 10.3589 8.87568C10.3589 8.87543 10.3589 8.87519 10.3589 8.87496C10.3589 8.87472 10.3589 8.87449 10.3589 8.87426C10.3589 8.87403 10.3589 8.87381 10.3589 8.87359C10.3589 8.87337 10.3589 8.87315 10.3589 8.87293C10.3589 8.87272 10.3589 8.8725 10.3589 8.8723C10.3589 8.87209 10.3589 8.87188 10.3589 8.87168C10.3589 8.87148 10.3589 8.87128 10.3589 8.87108C10.3589 8.87089 10.3589 8.87069 10.3589 8.8705C10.3589 8.87031 10.3589 8.87013 10.3589 8.86994C10.3589 8.86976 10.3589 8.86958 10.3589 8.8694C10.3589 8.86922 10.3589 8.86905 10.3589 8.86887C10.3589 8.8687 10.3589 8.86853 10.3589 8.86837C10.3589 8.8682 10.3589 8.86804 10.3589 8.86788C10.3589 8.86772 10.3589 8.86756 10.3589 8.8674C10.3589 8.86725 10.3589 8.8671 10.3589 8.86695C10.3589 8.8668 10.3589 8.86665 10.3589 8.86651C10.3589 8.86636 10.3589 8.86622 10.3589 8.86608C10.3589 8.86594 10.3589 8.86581 10.3589 8.86567C10.3589 8.86554 10.3589 8.86541 10.3589 8.86528C10.3589 8.86515 10.3589 8.86503 10.3589 8.8649C10.3589 8.86478 10.3589 8.86466 10.3589 8.86454C10.3589 8.86442 10.3589 8.8643 10.3589 8.86419C10.3589 8.86408 10.3589 8.86396 10.3589 8.86385C10.3589 8.86375 10.3589 8.86364 10.3589 8.86353C10.3589 8.86343 10.3589 8.86333 10.3589 8.86323C10.3589 8.86313 10.3589 8.86303 10.3589 8.86293C10.3589 8.86284 10.3589 8.86274 10.3589 8.86265C10.3589 8.86256 10.3589 8.86247 10.3589 8.86239C10.3589 8.8623 10.3589 8.86221 10.3589 8.86213C10.3589 8.86205 10.3589 8.86197 10.3589 8.86189C10.3589 8.86181 10.3589 8.86173 10.3589 8.86166C10.3589 8.86158 10.3589 8.86151 10.3589 8.86144C10.3589 8.86136 10.3589 8.8613 10.3589 8.86123C10.3589 8.86116 10.3589 8.86109 10.3589 8.86103C10.3589 8.86097 10.3589 8.8609 10.3589 8.86084C10.3589 8.86078 10.3589 8.86072 10.3589 8.86067C10.3589 8.86061 10.3589 8.86055 10.3589 8.8605C10.3589 8.86045 10.3589 8.86039 10.3589 8.86034C10.3589 8.86029 10.3589 8.86024 10.3589 8.8602C10.3589 8.86015 10.3589 8.8601 10.3589 8.86006C10.3589 8.86001 10.3589 8.85997 10.3589 8.85993C10.3589 8.85989 10.3589 8.85985 10.3589 8.85981C10.3589 8.85977 10.3589 8.85973 10.3589 8.8597C10.3589 8.85966 10.3589 8.85963 10.3589 8.85959C10.3589 8.85956 10.3589 8.85953 10.3589 8.8595C10.3589 8.85947 10.3589 8.85944 10.3589 8.85941C10.3589 8.85938 10.3589 8.85935 10.3589 8.85933C10.3589 8.8593 10.3589 8.85927 10.3589 8.85925C10.3589 8.85923 10.3589 8.8592 10.3589 8.85918C10.3589 8.85916 10.3589 8.85914 10.3589 8.85912C10.3589 8.8591 10.3589 8.85908 10.3589 8.85906C10.3589 8.85905 10.3589 8.85903 10.3589 8.85901C10.3589 8.859 10.3589 8.85898 10.3589 8.85897C10.3589 8.85895 10.3589 8.85894 10.3589 8.85893C10.3589 8.85891 10.3589 8.8589 10.3589 8.85889C10.3589 8.85888 10.3589 8.85887 10.3589 8.85886C10.3589 8.85885 10.3589 8.85884 10.3589 8.85883C10.3589 8.85882 10.3589 8.85882 10.3589 8.85881C10.3589 8.8588 10.3589 8.8588 10.3589 8.85879C10.3589 8.85878 10.3589 8.85878 10.3589 8.85877C10.3589 8.85877 10.3589 8.85876 10.3589 8.85876C10.3589 8.85876 10.3589 8.85875 10.3589 8.85875C10.3589 8.85875 10.3589 8.85874 10.3589 8.85874C10.3589 8.85874 10.3589 8.85874 10.3589 8.85873C10.3589 8.85873 10.3589 8.85873 10.3589 8.85873C10.3589 8.85873 10.3589 8.85873 10.3589 8.85873C10.3589 8.85873 10.3589 8.85873 10.3589 8.85873C10.3589 8.85873 10.3589 8.85872 10.3589 8.85872C10.3589 8.85872 10.3589 8.85872 10.3589 8.85872H8.85894ZM10.3589 8.85865V2.22559H7.35894V8.85865H10.3589Z" fill="white"/>
</svg>
