<svg width="30" height="27" viewBox="0 0 30 27" fill="none" xmlns="http://www.w3.org/2000/svg">
<path d="M29.9991 8.81556C29.9435 4.22314 26.3361 0.500003 21.8178 0.500003C20.4684 0.499968 19.1401 0.839444 17.9512 1.48814C16.7624 2.13683 15.75 3.07457 15.0045 4.21767C14.2578 3.07351 13.244 2.13515 12.0535 1.48642C10.863 0.837684 9.53299 0.498787 8.1822 0.500003C3.6639 0.500003 0.0582329 4.22314 0.000857696 8.81556C-0.101342 17.2897 8.95497 23.2798 13.6364 25.7966C14.151 26.0736 14.61 26.3086 15.0009 26.5C15.39 26.3178 15.8508 26.0736 16.3635 25.7966C21.045 23.2798 30.1031 17.2897 29.9991 8.81556Z" fill="#CE0A9C"/>
</svg>
